<svg t="1695740307622" class="icon" viewBox="0 0 1024 1024" version="1.1" xmlns="http://www.w3.org/2000/svg" p-id="1054" width="200" height="200"><path d="M237.34197 254.354498m31.857601 0l318.007122 0q31.857601 0 31.857601 31.857601l0 0q0 31.857601-31.857601 31.857601l-318.007122 0q-31.857601 0-31.857601-31.857601l0 0q0-31.857601 31.857601-31.857601Z" fill="#cdcdcd" opacity=".48" p-id="1055"></path><path d="M237.34197 485.834101m31.857601 0l318.007122 0q31.857601 0 31.857601 31.857601l0 0q0 31.857601-31.857601 31.857601l-318.007122 0q-31.857601 0-31.857601-31.857601l0 0q0-31.857601 31.857601-31.857601Z" fill="#cdcdcd" opacity=".48" p-id="1056"></path><path d="M224.086933 716.858595m31.857601 0l127.487291 0q31.857601 0 31.857601 31.857601l0 0q0 31.857601-31.857601 31.857601l-127.487291 0q-31.857601 0-31.857601-31.857601l0 0q0-31.857601 31.857601-31.857601Z" fill="#cdcdcd" opacity=".48" p-id="1057"></path><path d="M455.737201 1006.47832H183.070272A181.645213 181.645213 0 0 1 0.002844 826.767318V179.71669A181.645213 181.645213 0 0 1 183.070272 0.005689h512.566041a181.645213 181.645213 0 0 1 183.067428 179.711001v284.897973a36.636241 36.636241 0 0 1-73.215594 0V179.71669a108.998506 108.998506 0 0 0-109.851834-108.088288h-512.566041a108.998506 108.998506 0 0 0-109.851834 108.088288v647.050628a108.998506 108.998506 0 0 0 109.851834 108.088288h272.666929a35.953578 35.953578 0 1 1 0 71.907156z" fill="#cdcdcd" p-id="1058"></path><path d="M794.053544 553.872834a58.879673 58.879673 0 0 1 41.926878 17.351015l113.777146 113.777145a59.39167 59.39167 0 0 1 0 83.796868l-192.454042 192.454042a59.107227 59.107227 0 0 1-30.207832 16.213243l-140.173444 27.989178a59.221004 59.221004 0 0 1-69.859167-69.062727l26.566963-141.652547a58.765896 58.765896 0 0 1 16.383909-30.947383l192.283377-192.340265a58.765896 58.765896 0 0 1 41.756212-17.578569z m-7.452403 66.673407z m106.154077 106.154077l-98.701674-98.701674-182.55543 182.612319-23.096761 123.106872 121.627769-24.291421z" fill="#cdcdcd" p-id="1059"></path></svg>
